inDegrees=yes
name=ik_S50_A08_T01
DataType=double
version=3
OpenSimVersion=4.3-2021-08-27-4bc7ad9
endheader
time	pelvis_tilt	pelvis_list	pelvis_rotation	pelvis_tx	pelvis_ty	pelvis_tz	hip_flexion_r	hip_adduction_r	hip_rotation_r	knee_angle_r	knee_angle_r_beta	ankle_angle_r	subtalar_angle_r	mtp_angle_r	hip_flexion_l	hip_adduction_l	hip_rotation_l	knee_angle_l	knee_angle_l_beta	ankle_angle_l	subtalar_angle_l	mtp_angle_l	lumbar_extension	lumbar_bending	lumbar_rotation	arm_flex_r	arm_add_r	arm_rot_r	elbow_flex_r	pro_sup_r	wrist_flex_r	wrist_dev_r	arm_flex_l	arm_add_l	arm_rot_l	elbow_flex_l	pro_sup_l	wrist_flex_l	wrist_dev_l
14.23999999999979	-5.766188936270817	-1.055246926873915	31.02021746186137	0	0.9399999999999999	0	44.78916154442714	-10.05086124842013	-10.18676125348404	55.23811331915198	0.9640869500089353	0	0	0	44.78916154442714	-10.05086124842013	-10.18676125348404	55.23811331915198	0.9640869500089353	0	0	0	-3.690695233100217	-1.399037006313833	2.583434401574768	9.105062201082356	-5.657210051781392	-3.728292639159239	58.712353373815	106.2902657899979	0	0	72.18461321328043	-11.61868094751572	3.606466099997017	93.74532409808408	108.5808683852346	0	0
14.25999999999978	-5.778699855360962	-1.087530618209264	31.06141383237217	0	0.9399999999999999	0	44.7892315215831	-10.05080245424633	-10.18662263331927	55.23806029699362	0.9640860245976954	0	0	0	44.7892315215831	-10.05080245424633	-10.18662263331927	55.23806029699362	0.9640860245976954	0	0	0	-3.719456248519879	-1.414769631445242	2.521882784367881	9.146537306118704	-5.628153086402814	-3.680249079482647	58.74020878226678	106.2961820797834	0	0	71.75172977013807	-11.82784005212125	3.223182372814245	94.32835748564557	108.5336557841935	0	0
14.27999999999978	-5.787938313998583	-1.118748950562064	31.13833226200905	0	0.9399999999999999	0	44.7893571294146	-10.0506967881078	-10.18637356254674	55.23796531826275	0.9640843669061223	0	0	0	44.7893571294146	-10.0506967881078	-10.18637356254674	55.23796531826275	0.9640843669061223	0	0	0	-3.745241408584021	-1.431186235775817	2.457539539766146	9.172475000179375	-5.59029306124207	-3.654083415034513	58.78609636900578	106.2606356913015	0	0	70.61726966524327	-12.23323112812945	2.74387458747471	94.76386252910422	106.8777024072467	0	0
14.29999999999978	-5.79355811744402	-1.128718779575911	31.14940691163511	0	0.9399999999999999	0	44.78959802796244	-10.0505083471884	-10.18591441924165	55.237781458038	0.9640811579398371	0	0	0	44.78959802796244	-10.0505083471884	-10.18591441924165	55.237781458038	0.9640811579398371	0	0	0	-3.756608154627306	-1.434227740977176	2.45867689095655	9.165162880332216	-5.6013732549632	-3.6406837258813	58.80687519795276	106.2403911968122	0	0	70.63762433411937	-12.22940072278161	2.753526768000161	94.76574284767531	106.8665023391432	0	0
14.31999999999978	-5.799565460298212	-1.152188911229279	31.20300429639023	0	0.9399999999999999	0	44.78971804504539	-10.0504077566731	-10.18567686920642	55.23769068178079	0.9640795735952661	0	0	0	44.78971804504539	-10.0504077566731	-10.18567686920642	55.23769068178079	0.9640795735952661	0	0	0	-3.775547968704815	-1.447092741777784	2.406909170705337	9.165414854545704	-5.573392799275471	-3.630941941760434	58.85414068888204	106.2225018827801	0	0	69.2250465280006	-12.60441150040405	2.463213900654356	95.30016883258713	105.8281846023348	0	0
14.33999999999978	-5.80191352464973	-1.162934538935405	31.20347410109622	0	0.9399999999999999	0	44.79007981392623	-10.05014918034226	-10.18501746138839	55.23741119852831	0.9640746956923062	0	0	0	44.79007981392623	-10.05014918034226	-10.18501746138839	55.23741119852831	0.9640746956923062	0	0	0	-3.785374604507385	-1.450556895460734	2.400797507391686	9.171681828646653	-5.574196756369375	-3.619529814931928	58.87820224618051	106.1955132827413	0	0	69.243862144947	-12.61034440616592	2.460540167131377	95.29795321537938	105.8095091740597	0	0
14.35999999999978	-5.809837079049126	-1.181560783648488	31.2455016602931	0	0.9399999999999999	0	44.79020333729085	-10.05004614145601	-10.18477357686062	55.23731771040746	0.9640730640167858	0	0	0	44.79020333729085	-10.05004614145601	-10.18477357686062	55.23731771040746	0.9640730640167858	0	0	0	-3.803327028306919	-1.460083099566713	2.376553855546121	9.171786722785589	-5.546994144201643	-3.633336920296001	58.89783282466449	106.2120138574691	0	0	67.60075552855371	-12.88121825215772	2.160090987044468	95.906902485948	104.6137141848174	0	0
